<svg width="181" height="46" viewBox="0 0 181 46" fill="none" xmlns="http://www.w3.org/2000/svg">
<path d="M0.64 10.12H6.08V37H43.2C43.712 37 44.352 36.5947 45.12 35.784C45.9307 34.9733 46.72 34.0347 47.488 32.968C48.256 31.9013 48.96 30.856 49.6 29.832C50.24 28.808 50.6667 28.0613 50.88 27.592C49.1733 22.6853 47.5733 18.504 46.08 15.048C44.5867 11.5493 43.2427 8.712 42.048 6.536C40.8533 4.36 39.8507 2.78133 39.04 1.8C38.2293 0.776 37.632 0.264 37.248 0.264H6.08L0.64 10.12ZM35.84 26.888C35.84 27.016 35.8187 27.08 35.776 27.08H18.176V10.312H28.48C28.5227 10.312 28.6293 10.44 28.8 10.696C28.9707 10.9093 29.1413 11.1653 29.312 11.464C29.5253 11.7627 29.7173 12.0613 29.888 12.36C30.0587 12.616 30.1653 12.7867 30.208 12.872L35.84 26.888ZM79.468 37H53.356V0.264H88.108L82.54 10.12H65.516V14.152H85.1L79.532 24.008H65.516V27.144H85.036L79.468 37ZM104.174 37C105.667 37.9813 107.246 38.7707 108.91 39.368C110.574 40.008 112.43 40.584 114.478 41.096L132.206 0.264H118.638L110.702 19.464L102.958 0.264H89.39L104.174 37ZM180.939 45.512H180.299L155.275 27.464L151.563 32.136C151.606 32.136 151.222 32.264 150.411 32.52C149.6 32.7333 148.555 33.032 147.275 33.416C145.995 33.7573 144.587 34.1413 143.051 34.568C141.558 34.9947 140.15 35.4 138.827 35.784C137.504 36.1253 136.374 36.424 135.435 36.68C134.539 36.8933 134.048 37 133.963 37H133.451L147.723 18.248L133.899 0.264H148.875L155.403 8.712L161.995 0.264H176.907L160.907 20.36L180.939 45.512Z" fill="white"/>
</svg>
